#!OML:ASF F:\VICON\USERDATA\INSTALL\rory3\rory3.ASF
:FULLY-SPECIFIED
:DEGREES
1241
root -4.6072 19.0074 6.86839 1.32473 -29.0695 7.1901
lowerback 8.25856 0.0236333 -0.61443
upperback -0.208322 -0.135267 -2.01588
thorax -4.85636 -0.0798354 -1.73346
lowerneck -8.2893 -6.57331 -4.79253
upperneck -6.76861 -8.1908 11.9841
head 0.0500487 -4.03825 4.553
rclavicle -1.26725e-014 3.97569e-015
rhumerus 63.3925 -17.7781 -35.3366
rradius 57.8064
rwrist 10.4247
rhand -62.2205 -6.65016
rfingers 7.12502
rthumb -34.2631 -33.3751
lclavicle -1.26725e-014 3.97569e-015
lhumerus -33.7176 -14.0898 73.6643
lradius 58.5268
lwrist -2.89981
lhand -28.1835 18.556
lfingers 7.12502
lthumb -1.56316 48.53
rfemur -10.95 19.8098 14.1551
rtibia 23.5179
rfoot -15.8965 -16.7944
rtoes 0.614499
lfemur -2.54421 -2.96071 -10.3291
ltibia 23.8821
lfoot 5.08155 12.4946
ltoes -13.4316
1242
root -4.5834 19.0204 6.86227 1.49922 -29.2373 7.0904
lowerback 8.2543 0.00663629 -0.459841
upperback -0.239459 -0.143504 -2.02114
thorax -4.88708 -0.0879103 -1.82524
lowerneck -8.13877 -6.50673 -4.59195
upperneck -6.82354 -8.11617 11.9568
head -0.0120052 -4.01163 4.5148
rclavicle 3.58309e-014 1.94809e-014
rhumerus 62.5283 -17.7987 -32.4303
rradius 57.267
rwrist 14.3945
rhand -60.9997 -0.975247
rfingers 7.12502
rthumb -33.103 -27.9537
lclavicle 3.58309e-014 1.94809e-014
lhumerus -33.706 -14.6023 73.8998
lradius 58.5724
lwrist -2.60999
lhand -28.4489 18.341
lfingers 7.12502
lthumb -1.81949 48.313
rfemur -10.9462 20.102 14.0931
rtibia 23.0489
rfoot -15.6382 -16.8763
rtoes 0.830817
lfemur -2.64171 -3.15744 -10.2091
ltibia 23.722
lfoot 5.22999 12.3978
ltoes -13.259
1243
root -4.55747 19.0332 6.85952 1.58923 -29.3608 7.08539
lowerback 8.19889 -0.0332338 -0.37933
upperback -0.215188 -0.187259 -2.01842
thorax -4.83198 -0.111257 -1.86198
lowerneck -8.15093 -6.39309 -4.60689
upperneck -6.69365 -7.97135 12.1187
head 0.0290741 -3.93585 4.58025
rclavicle 6.70898e-015 -7.95139e-016
rhumerus 61.6429 -17.7973 -29.3821
rradius 56.8768
rwrist 18.459
rhand -59.7969 5.68597
rfingers 7.12502
rthumb -31.9585 -21.5283
lclavicle 6.70898e-015 -7.95139e-016
lhumerus -33.7278 -14.9995 74.1408
lradius 58.7421
lwrist -2.75882
lhand -28.462 18.3616
lfingers 7.12502
lthumb -1.83215 48.3334
rfemur -10.8538 20.2609 13.9461
rtibia 22.5518
rfoot -15.415 -16.8829
rtoes 0.884073
lfemur -2.71387 -3.22814 -10.1963
ltibia 23.6272
lfoot 5.52002 12.1002
ltoes -14.2378
1244
root -4.53066 19.0451 6.85707 1.70171 -29.4314 6.98792
lowerback 8.15924 -0.100428 -0.166716
upperback -0.141616 -0.254447 -2.02023
thorax -4.73579 -0.149055 -1.97495
lowerneck -8.12477 -6.27837 -4.67521
upperneck -6.72075 -7.80885 12.4127
head 0.0192462 -3.85611 4.71005
rclavicle -2.68359e-015 2.06736e-014
rhumerus 60.7575 -17.8563 -26.4554
rradius 56.6966
rwrist 22.5929
rhand -58.7516 10.7817
rfingers 7.12502
rthumb -30.9626 -16.6269
lclavicle -2.68359e-015 2.06736e-014
lhumerus -33.6578 -15.3558 74.2869
lradius 58.9456
lwrist -2.99327
lhand -28.1755 18.517
lfingers 7.12502
lthumb -1.55544 48.4911
rfemur -10.7106 20.4158 13.9099
rtibia 22.058
rfoot -15.186 -16.9888
rtoes 0.999799
lfemur -2.78784 -3.30042 -10.0944
ltibia 23.5672
lfoot 5.71149 11.8525
ltoes -14.9879
1245
root -4.50342 19.0552 6.85085 1.88839 -29.5701 6.76456
lowerback 8.21095 -0.153932 0.110523
upperback -0.0932899 -0.296922 -1.98328
thorax -4.7171 -0.175824 -2.08755
lowerneck -8.15349 -6.18573 -4.56001
upperneck -6.73422 -7.69222 12.4472
head 0.00553898 -3.80083 4.70551
rclavicle -7.86193e-014 -5.56597e-015
rhumerus 59.8906 -17.8973 -23.7671
rradius 56.7486
rwrist 26.6021
rhand -57.2655 14.5993
rfingers 7.12502
rthumb -29.545 -13.0694
lclavicle -7.86193e-014 -5.56597e-015
lhumerus -33.5638 -15.7209 74.4109
lradius 59.1215
lwrist -3.06825
lhand -28.1353 18.3833
lfingers 7.12502
lthumb -1.51657 48.3577
rfemur -10.6293 20.6681 13.9875
rtibia 21.5648
rfoot -14.9696 -17.1733
rtoes 0.736603
lfemur -2.8848 -3.34475 -9.87796
ltibia 23.536
lfoot 5.78308 11.7181
ltoes -14.9682
1246
root -4.47626 19.064 6.84674 2.00488 -29.7939 6.64613
lowerback 8.30815 -0.199408 0.259657
upperback -0.0958634 -0.343304 -1.96967
thorax -4.77707 -0.202483 -2.15208
lowerneck -8.18584 -6.09125 -4.26997
upperneck -6.65945 -7.59534 12.2765
head 0.00520705 -3.75605 4.5894
rclavicle -2.73826e-014 -1.43125e-014
rhumerus 59.0273 -17.7535 -21.2531
rradius 56.9013
rwrist 29.9602
rhand -56.1579 17.4938
rfingers 7.12502
rthumb -28.4871 -10.357
lclavicle -2.73826e-014 -1.43125e-014
lhumerus -33.661 -15.9954 74.5157
lradius 59.3738
lwrist -3.2466
lhand -28.151 18.0799
lfingers 7.12502
lthumb -1.53171 48.0542
rfemur -10.5469 21.0057 13.9506
rtibia 21.0836
rfoot -14.8152 -17.2846
rtoes 0.682629
lfemur -2.93155 -3.3137 -9.80102
ltibia 23.5317
lfoot 5.73309 11.6989
ltoes -14.8083
